:SAMPLES-PER-SECOND 30
:FULLY-SPECIFIED
:DEGREES
59
root  -19.0727 34.5587 -16.3923 -165.424 21.5943 -177.182
RightUpLeg  -30.5263 -19.6981 18.6596
RightLeg  12.684 0.135993 0.0221255
RightFoot  4.54619 0.0141582 0.169873
RightToes  -39.0854 -0.211219 -0.309898
Spine  -1.2882 3.42907 -5.52036
Spine1  -2.88021 6.79533 -10.39
HEad  -89.5763 -47.186 50.4615
LeftShoulder1  -1.94126e-019 -3.10601e-018 -2.51263e-017
LeftArm  -5.9027 11.4253 -68.1751
LeftForeArm  26.6957 -24.0603 -4.29979
LeftHand  -0.448021 -1.11214 8.14374
RightShoulder  -4.96962e-017 0 -2.36833e-017
RightArm  -14.0232 67.0824 61.68
RightForeArm  67.2512 5.7613 0.959523
RightHand  -0.124752 2.81483 -1.98371
LeftUpLeg  -8.45585 -9.58879 -0.160604
LeftLeg  23.1889 -0.267758 -0.0982675
LeftFoot  -6.14914 0.00155053 0.190368
LeftToes  -5.28794 1.87998e-006 4.79886e-008
60
root  -18.5772 34.3177 -17.4747 -165.689 18.7704 -179.046
RightUpLeg  -30.0719 -20.7833 19.4672
RightLeg  8.85126 2.37166 0.215567
RightFoot  7.84542 0.0031298 0.47357
RightToes  -41.1757 -0.227943 -0.321667
Spine  -0.891414 4.6249 -5.47473
Spine1  -2.23171 9.26924 -10.3545
HEad  -96.398 -48.9563 52.1042
LeftShoulder1  -1.94126e-019 -3.10601e-018 -2.51263e-017
LeftArm  -4.62754 10.0114 -68.4371
LeftForeArm  28.1783 -24.0112 -4.27207
LeftHand  -0.437288 -1.33903 7.70155
RightShoulder  -4.96962e-017 0 -2.36833e-017
RightArm  -12.346 62.1508 68.9275
RightForeArm  70.004 2.40684 0.362847
RightHand  -0.0693774 -0.356137 -1.56751
LeftUpLeg  -9.71013 -6.39098 -0.375025
LeftLeg  27.6011 -6.58354 -2.91527
LeftFoot  -5.50762 0.0336103 0.860225
LeftToes  -9.84011 1.87998e-006 4.79886e-008
61
root  -17.9748 34.0122 -18.6334 -165.773 15.133 -179.965
RightUpLeg  -28.0119 -18.0918 18.4518
RightLeg  7.10389 3.49093 0.209783
RightFoot  4.72663 0.00327325 0.430115
RightToes  -8.75904 -0.028034 -0.0808927
Spine  -0.868409 5.36899 -4.95844
Spine1  -2.17431 10.7412 -9.32517
HEad  -97.7669 -50.877 48.2355
LeftShoulder1  -1.94126e-019 -3.10601e-018 -2.51263e-017
LeftArm  -4.65702 10.7651 -68.4098
LeftForeArm  28.8097 -25.4238 -4.4924
LeftHand  -0.425209 -1.49677 7.3335
RightShoulder  -4.96962e-017 0 -2.36833e-017
RightArm  -10.5814 54.8988 74.84
RightForeArm  71.8728 1.45819 0.189361
RightHand  -0.164578 -2.56592 -6.33514
LeftUpLeg  -12.1456 -0.713947 1.67533
LeftLeg  35.3955 -16.125 -9.74372
LeftFoot  -3.24492 0.0314353 1.27121
LeftToes  -21.0874 1.87998e-006 4.79886e-008
62
root  -17.2799 33.6853 -19.6852 -165.889 10.1497 -179.282
RightUpLeg  -27.0729 -13.5053 17.4418
RightLeg  9.29644 -6.1156 -0.597868
RightFoot  -0.0424689 -0.000737039 0.222699
RightToes  7.24801 0.013656 0.0695369
Spine  -0.711778 5.69563 -3.52401
Spine1  -1.8707 11.6727 -6.58651
HEad  -94.51 -51.9638 40.485
LeftShoulder1  -1.94126e-019 -3.10601e-018 -2.51263e-017
LeftArm  -5.77135 12.3087 -69.1021
LeftForeArm  27.5894 -27.0805 -4.70219
LeftHand  -0.451231 -1.13963 8.16881
RightShoulder  -4.96962e-017 0 -2.36833e-017
RightArm  -5.00217 47.5304 78.4178
RightForeArm  72.0869 0.889712 0.0868674
RightHand  -0.268438 -2.50909 -10.482
LeftUpLeg  -16.5234 3.29968 6.05829
LeftLeg  47.1356 -21.7057 -19.3177
LeftFoot  2.83491 0.036656 -1.31989
LeftToes  -51.4535 1.87998e-006 4.79886e-008
63
root  -16.6514 33.6579 -20.6515 -166.609 6.39651 -178.637
RightUpLeg  -27.039 -16.0852 18.3052
RightLeg  13.6065 -6.44635 -1.12376
RightFoot  -3.39299 0.000937201 0.629224
RightToes  5.7352 0.011534 0.0548894
Spine  -0.0248169 5.9493 -1.99658
Spine1  -0.372665 12.4366 -3.57609
HEad  -92.2071 -49.7751 34.3408
LeftShoulder1  -1.94126e-019 -3.10601e-018 -2.51263e-017
LeftArm  -13.4506 14.0541 -71.3496
LeftForeArm  29.6776 -27.7195 -4.5732
LeftHand  -0.490984 -1.21159 8.78527
RightShoulder  -4.96962e-017 0 -2.36833e-017
RightArm  -0.476572 40.726 81.6148
RightForeArm  76.1208 1.99939 0.266935
RightHand  -0.471441 -0.982718 -12.3675
LeftUpLeg  -21.6544 2.24617 9.17298
LeftLeg  58.225 -20.6644 -26.3699
LeftFoot  11.5884 0.742817 -7.14908
LeftToes  -62.7548 1.87998e-006 4.79886e-008
64
root  -15.9671 33.8362 -21.5827 -167.004 3.75073 -179.324
RightUpLeg  -24.9422 -21.8316 19.1079
RightLeg  11.927 -2.84598 -0.411151
RightFoot  -3.94716 -0.00503283 0.426853
RightToes  4.28697 0.0105237 0.0409241
Spine  0.502329 6.1892 -1.30969
Spine1  0.759856 13.0288 -2.22732
HEad  -90.9408 -47.6565 30.7219
LeftShoulder1  -1.94126e-019 -3.10601e-018 -2.51263e-017
LeftArm  -19.9255 17.0451 -72.3613
LeftForeArm  28.4038 -29.823 -4.9152
LeftHand  -0.520675 -0.480161 10.4039
RightShoulder  -4.96962e-017 0 -2.36833e-017
RightArm  4.95898 33.4836 84.5876
RightForeArm  81.6684 4.80905 0.741732
RightHand  -0.766919 3.07138 -10.732
LeftUpLeg  -26.9497 -1.37965 10.2603
LeftLeg  65.2526 -17.3499 -28.8614
LeftFoot  20.3633 2.32698 -12.7422
LeftToes  -52.7019 1.87998e-006 4.79886e-008
65
root  -15.2607 34.0853 -22.4808 -166.978 2.48265 178.187
RightUpLeg  -22.1732 -25.0399 17.6959
RightLeg  8.43169 -0.590643 -0.0479234
RightFoot  -3.62568 -0.00958877 0.258158
RightToes  3.68313 0.00971595 0.03512
Spine  0.907925 6.55156 -1.5016
Spine1  1.47538 13.8678 -2.66051
HEad  -88.3174 -47.0073 28.0356
LeftShoulder1  -1.94126e-019 -3.10601e-018 -2.51263e-017
LeftArm  -23.1244 19.7412 -71.8877
LeftForeArm  23.843 -30.1264 -5.21783
LeftHand  -0.51019 0.748586 12.7738
RightShoulder  -4.96962e-017 0 -2.36833e-017
RightArm  14.7105 26.4254 86.6552
RightForeArm  75.6391 9.02555 1.46437
RightHand  -0.763346 6.576 -7.72709
LeftUpLeg  -30.883 -3.63421 8.80209
LeftLeg  66.3338 -11.2074 -20.611
LeftFoot  21.4992 1.66879 -8.61211
LeftToes  -43.939 1.87998e-006 4.79886e-008
66
root  -14.5599 34.3144 -23.3499 -166.455 4.29106 175.699
RightUpLeg  -19.7801 -24.105 15.2777
RightLeg  6.15476 0.98473 0.0435791
RightFoot  -2.73287 -0.00935258 0.165654
RightToes  2.09129 0.00912206 0.0198782
Spine  1.02676 7.38367 -2.26624
Spine1  1.51303 15.5585 -4.18124
HEad  -83.945 -46.8614 24.9932
LeftShoulder1  -1.94126e-019 -3.10601e-018 -2.51263e-017
LeftArm  -23.2712 22.154 -69.57
LeftForeArm  18.4014 -28.7056 -5.18704
LeftHand  -0.44973 1.21692 12.4754
RightShoulder  -4.96962e-017 0 -2.36833e-017
RightArm  23.7581 20.7654 89.7688
RightForeArm  69.7215 11.8123 1.47584
RightHand  -0.53182 7.48227 -5.14745
LeftUpLeg  -33.3712 -3.01107 6.47403
LeftLeg  64.7904 -4.64892 -8.37083
LeftFoot  18.8309 0.466862 -2.65334
LeftToes  -42.1517 1.87998e-006 4.79886e-008
